<svg xmlns="http://www.w3.org/2000/svg" width="84" height="84" viewBox="0 0 84 84"><defs><linearGradient id="brandGrad" x1="0%" x2="100%" y1="0%" y2="100%"><stop offset="0%" stop-color="#7c3aed"/><stop offset="55%" stop-color="#4f46e5"/><stop offset="100%" stop-color="#0ea5e9"/></linearGradient><linearGradient id="iconGrad" x1="0%" x2="100%" y1="0%" y2="100%"><stop offset="0%" stop-color="#a78bfa"/><stop offset="100%" stop-color="#38bdf8"/></linearGradient><filter id="shadow" width="130%" height="130%" x="-10%" y="-10%"><feDropShadow dx="0" dy="2" flood-color="#4f46e5" flood-opacity=".4" stdDeviation="4"/></filter></defs><rect width="76" height="76" x="4" y="4" fill="url(#brandGrad)" filter="url(#shadow)" rx="18" ry="18"/><rect width="24" height="6" x="26" y="14" fill="#fff" opacity=".95" rx="3"/><rect width="24" height="5" x="18" y="26" fill="url(#iconGrad)" opacity=".9" rx="2.5" transform="rotate(32 30 28.5)"/><rect width="24" height="5" x="38" y="26" fill="url(#iconGrad)" opacity=".9" rx="2.5" transform="rotate(-32 50 28.5)"/><rect width="38" height="5" x="23" y="44" fill="#fff" opacity=".85" rx="2.5"/><rect width="16" height="5" x="19" y="54" fill="#fff" opacity=".7" rx="2.5"/><rect width="16" height="5" x="49" y="54" fill="#fff" opacity=".7" rx="2.5"/><circle cx="27" cy="69" r="3" fill="#a78bfa" opacity=".9"/><circle cx="36" cy="69" r="3" fill="#818cf8" opacity=".9"/><circle cx="45" cy="69" r="3" fill="#38bdf8" opacity=".9"/><circle cx="54" cy="69" r="3" fill="#7dd3fc" opacity=".9"/></svg>
