<svg xmlns="http://www.w3.org/2000/svg" width="320" height="100" viewBox="0 0 320 100"><defs><linearGradient id="brandGrad" x1="0%" x2="100%" y1="0%" y2="100%"><stop offset="0%" stop-color="#7c3aed"/><stop offset="55%" stop-color="#4f46e5"/><stop offset="100%" stop-color="#0ea5e9"/></linearGradient><linearGradient id="iconGrad" x1="0%" x2="100%" y1="0%" y2="100%"><stop offset="0%" stop-color="#a78bfa"/><stop offset="100%" stop-color="#38bdf8"/></linearGradient><filter id="glow" width="140%" height="140%" x="-20%" y="-20%"><feGaussianBlur in="SourceGraphic" result="blur" stdDeviation="2.5"/><feMerge><feMergeNode in="blur"/><feMergeNode in="SourceGraphic"/></feMerge></filter><filter id="shadow" width="130%" height="130%" x="-10%" y="-10%"><feDropShadow dx="0" dy="2" flood-color="#4f46e5" flood-opacity=".35" stdDeviation="3"/></filter></defs><rect width="72" height="72" x="6" y="10" fill="url(#brandGrad)" filter="url(#shadow)" rx="16" ry="16"/><rect width="24" height="6" x="26" y="22" fill="#fff" opacity=".95" rx="3"/><rect width="24" height="5" x="18" y="34" fill="url(#iconGrad)" opacity=".9" rx="2.5" transform="rotate(32 30 36.5)"/><rect width="24" height="5" x="38" y="34" fill="url(#iconGrad)" opacity=".9" rx="2.5" transform="rotate(-32 50 36.5)"/><rect width="36" height="5" x="24" y="50" fill="#fff" opacity=".85" rx="2.5"/><rect width="14" height="5" x="20" y="60" fill="#fff" opacity=".7" rx="2.5"/><rect width="14" height="5" x="50" y="60" fill="#fff" opacity=".7" rx="2.5"/><circle cx="27" cy="75" r="2.5" fill="#a78bfa" opacity=".9"/><circle cx="35" cy="75" r="2.5" fill="#818cf8" opacity=".9"/><circle cx="43" cy="75" r="2.5" fill="#38bdf8" opacity=".9"/><circle cx="51" cy="75" r="2.5" fill="#7dd3fc" opacity=".9"/><text x="96" y="62" fill="url(#brandGrad)" filter="url(#glow)" font-family="'SF Pro Display', 'Inter', 'Segoe UI', system-ui, sans-serif" font-size="42" font-weight="700" letter-spacing="-1.5">alfig</text><text x="98" y="80" fill="#94a3b8" font-family="'SF Pro Text', 'Inter', 'Segoe UI', system-ui, sans-serif" font-size="12" font-weight="400" letter-spacing="2.5">UNIFIED CONFIG</text></svg>